<?xml version="1.0" encoding="UTF-8"?>
<svg id="Layer_1" xmlns="http://www.w3.org/2000/svg" version="1.1" viewBox="0 0 500 500">
  <!-- Generator: Adobe Illustrator 30.0.0, SVG Export Plug-In . SVG Version: 2.1.1 Build 123)  -->
  <defs>
    <style>
      .st0 {
        fill: #a7cde8;
      }

      .st1 {
        fill: #e8bea7;
      }

      .st2 {
        fill: #d9b4e4;
      }

      .st3 {
        fill: #e8e3a7;
      }
    </style>
  </defs>
  <path class="st3" d="M298.19,488.7s45.79-27.87,55.49-60.45c8.38-28.15,1.26-46.38-13.1-54.47l-32.71,82.39,17.38-86.89c-16.35-.93-32.14,10.47-40.47,38.46-9.7,32.58,13.41,80.95,13.41,80.95Z"/>
  <path class="st3" d="M412.66,430.82s22.92-48.46,13.09-81c-8.49-28.12-24.46-39.42-40.9-38.28l18,86.8-33.28-82.12c-14.16,8.21-21.08,26.42-12.64,54.37,9.82,32.54,55.73,60.23,55.73,60.23Z"/>
  <path class="st0" d="M159.33,11.3s-45.07,27.43-54.62,59.5c-8.25,27.71-1.24,45.65,12.9,53.61l32.19-81.1-17.1,85.52c16.09.92,31.63-10.3,39.83-37.85,9.54-32.07-13.2-79.68-13.2-79.68Z"/>
  <path class="st0" d="M43.72,65.66s-22.56,47.7-12.89,79.73c8.36,27.68,24.07,38.8,40.26,37.68l-17.72-85.44,32.76,80.83c13.94-8.09,20.75-26,12.44-53.52-9.67-32.03-54.85-59.28-54.85-59.28Z"/>
  <path class="st1" d="M476.48,204.26c-3.1-66.89-57.71-121.02-124.62-123.56-35.89-1.37-68.66,11.87-92.92,34.21v86.79c9.59-6.92,21.5-10.84,34.34-10.35,27.33,1.04,49.81,22.33,52.69,49.22h127.12c2.76-11.58,3.98-23.75,3.39-36.31Z"/>
  <path class="st0" d="M241.07,114.92c-15.38-14.17-34.18-24.68-55.03-30.12-.4,5.24-1.27,10.47-2.77,15.54-8.76,29.43-28.03,47.9-52.23,50.52l-5.58,8.9c-3.57,9.84-9.43,17.65-16.2,23.35,0,0-9.44,8.45-18.91,11.89s-22.47.79-22.47.79c-15.45-1.52-28.94-9.5-39.01-22.66-3,9.94-4.85,20.37-5.34,31.14-.58,12.55.63,24.73,3.39,36.3h127.12c2.88-26.89,25.36-48.18,52.69-49.22,12.85-.49,24.75,3.43,34.34,10.35v-86.77Z"/>
  <path class="st2" d="M241.07,347.15l-66.45-57.45c-9.75-7.73-16.8-18.69-19.58-31.26H32.58c8.47,21.25,22.38,39.73,40.02,53.73l168.47,145.66v-110.68Z"/>
  <path class="st3" d="M344.96,258.43c-2.78,12.57-9.84,23.53-19.58,31.26l-66.45,57.66v111.01l15.17-13.16c-3.23-14.82-4.62-32.12.09-47.94,8.76-29.43,28.03-47.9,52.23-50.52l5.58-8.9c3.57-9.84,9.43-17.65,16.2-23.35,0,0,10.02-9.4,18.91-11.89s22.46-.79,22.46-.79c12.24,1.2,23.26,6.46,32.32,15.15l5.52-4.79c17.64-14,31.55-32.49,40.02-53.73h-122.46Z"/>
</svg>