<?xml version="1.0" encoding="UTF-8"?>
<svg id="Layer_1" xmlns="http://www.w3.org/2000/svg" version="1.1" viewBox="0 0 100 100">
  <defs>
    <style>
      .st0 { fill: #a8cde7; }
      .vec { vector-effect: non-scaling-stroke; }
    </style>
  </defs>

  <path class="st0 vec" d="M64.8,66.7c-.33,0-.66-.13-.91-.38-.5-.5-.5-1.31,0-1.81l7.87-7.87c.5-.5,1.31-.5,1.81,0s.5,1.31,0,1.81l-7.87,7.87c-.25.25-.58.38-.91.38Z"/>
  <path class="st0 vec" d="M47.71,66.7c-.33,0-.66-.13-.91-.38-.5-.5-.5-1.31,0-1.81l7.87-7.87c.5-.5,1.31-.5,1.81,0s.5,1.31,0,1.81l-7.87,7.87c-.25.25-.58.38-.91.38Z"/>
  <path class="st0 vec" d="M13.51,75.24c-.33,0-.66-.13-.91-.38-.5-.5-.5-1.31,0-1.81l7.87-7.87c.5-.5,1.31-.5,1.81,0s.5,1.31,0,1.81l-7.87,7.87c-.25.25-.58.38-.91.38Z"/>
  <path class="st0 vec" d="M64.8,83.79c-.33,0-.66-.13-.91-.38-.5-.5-.5-1.31,0-1.81l7.87-7.87c.5-.5,1.31-.5,1.81,0s.5,1.31,0,1.81l-7.87,7.87c-.25.25-.58.38-.91.38Z"/>
  <path class="st0 vec" d="M30.61,83.79c-.33,0-.66-.13-.91-.38-.5-.5-.5-1.31,0-1.81l7.87-7.87c.5-.5,1.31-.5,1.81,0s.5,1.31,0,1.81l-7.87,7.87c-.25.25-.58.38-.91.38Z"/>

  <path class="st0 vec" d="M63.6,69.77l-12.69,10.42c-.17.14-.07.43.15.43h3.87c.22,0,.32.27.16.42l-14.59,13.18c-.33.3-.8-.15-.52-.49l8.8-10.6c.13-.16.02-.39-.18-.39h-4.52c-.2,0-.31-.22-.19-.38l9.39-12.91c.05-.06.12-.1.19-.1h9.99c.23,0,.33.28.15.43Z"/>

  <path class="st0 vec" d="M78.39,19.42c-3.33,0-6.47.81-9.25,2.23-1.96-9.18-10.12-16.07-19.89-16.07s-17.57,6.6-19.75,15.48c-2.46-1.06-5.17-1.64-8.02-1.64C10.26,19.42,1.15,28.53,1.15,39.76s9.11,20.34,20.34,20.34h6.87l5.68-7.82c.53-.72,1.38-1.15,2.27-1.15h9.99c1.18,0,2.24.75,2.64,1.86.4,1.11.06,2.36-.85,3.11l-4.87,4h4.37l5.28-5.28c.73-.73,1.69-1.13,2.72-1.13s1.99.4,2.72,1.13c.73.73,1.13,1.69,1.13,2.72,0,.96-.36,1.85-1,2.56h6.25l5.28-5.28c.73-.73,1.69-1.13,2.72-1.13s1.99.4,2.72,1.13c.73.73,1.13,1.69,1.13,2.72,0,.96-.36,1.85-1,2.56h2.87c11.23,0,20.34-9.11,20.34-20.34s-9.11-20.34-20.34-20.34ZM38.93,41.19c-.46,1.46-1.82,2.51-3.43,2.51s-2.97-1.06-3.43-2.51c-.15-.47.2-.94.69-.94h.39c.3,0,.57.19.68.47.25.69.91,1.18,1.68,1.18s1.43-.49,1.68-1.18c.1-.28.37-.47.67-.47h.39c.49,0,.84.48.69.94ZM41.65,33.76c-.09.29-1.03,2.84-7.24,3.53-.03,0-.06,0-.09,0-.43,0-.8-.32-.85-.76-.05-.47.29-.89.76-.94,4.92-.54,5.75-2.26,5.79-2.35.15-.43.61-.67,1.05-.54.45.14.71.61.57,1.06ZM53.89,45.46h-.76c-.21,0-.4-.11-.49-.29-.59-1.15-1.4-1.85-2.16-1.85s-1.57.7-2.16,1.85c-.09.18-.29.29-.49.29h-.76c-.42,0-.68-.43-.51-.81.88-1.9,2.31-3.14,3.92-3.14s3.04,1.24,3.92,3.14c.17.38-.09.81-.51.81ZM59.39,33.76c-.14-.45.12-.93.57-1.06.44-.13.91.11,1.05.54.04.09.88,1.81,5.79,2.35.47.05.81.47.76.94-.05.44-.42.76-.85.76-.03,0-.06,0-.09,0-6.21-.68-7.15-3.24-7.24-3.53ZM68.89,41.19c-.46,1.46-1.82,2.51-3.43,2.51s-2.97-1.06-3.43-2.51c-.15-.47.2-.94.69-.94h.39c.3,0,.57.19.68.47.25.69.91,1.18,1.68,1.18s1.43-.49,1.68-1.18c.1-.28.37-.47.68-.47h.39c.49,0,.84.48.69.94Z"/>
</svg>
