<?xml version="1.0" encoding="UTF-8"?>
<svg id="Layer_1" xmlns="http://www.w3.org/2000/svg" version="1.1" viewBox="0 0 100 100">
  <defs>
    <style>
      .st0 { fill: #a8cde7; }
      .vec { vector-effect: non-scaling-stroke; }
    </style>
  </defs>

  <path class="st0 vec" d="M64.94,72.28c-.33,0-.66-.13-.91-.38-.51-.51-.51-1.32,0-1.83l7.95-7.94c.51-.51,1.32-.51,1.83,0s.51,1.32,0,1.83l-7.95,7.94c-.25.25-.58.38-.91.38Z"/>
  <path class="st0 vec" d="M47.69,72.28c-.33,0-.66-.13-.91-.38-.51-.51-.51-1.32,0-1.83l7.95-7.94c.51-.51,1.32-.51,1.83,0s.51,1.32,0,1.83l-7.95,7.94c-.25.25-.58.38-.91.38Z"/>
  <path class="st0 vec" d="M30.43,72.28c-.33,0-.66-.13-.91-.38-.51-.51-.51-1.32,0-1.83l7.95-7.94c.51-.51,1.32-.51,1.83,0s.51,1.32,0,1.83l-7.95,7.94c-.25.25-.58.38-.91.38Z"/>

  <path class="st0 vec" d="M47.69,80.91c-.33,0-.66-.13-.91-.38-.51-.51-.51-1.32,0-1.83l7.95-7.94c.51-.51,1.32-.51,1.83,0s.51,1.32,0,1.83l-7.95,7.94c-.25.25-.58.38-.91.38Z"/>
  <path class="st0 vec" d="M30.43,80.91c-.33,0-.66-.13-.91-.38-.51-.51-.51-1.32,0-1.83l7.95-7.94c.51-.51,1.32-.51,1.83,0s.51,1.32,0,1.83l-7.95,7.94c-.25.25-.58.38-.91.38Z"/>
  <path class="st0 vec" d="M13.18,80.91c-.33,0-.66-.13-.91-.38-.51-.51-.51-1.32,0-1.83l7.95-7.94c.51-.51,1.32-.51,1.83,0s.51,1.32,0,1.83l-7.95,7.94c-.25.25-.58.38-.91.38Z"/>

  <path class="st0 vec" d="M64.94,89.54c-.33,0-.66-.13-.91-.38-.51-.51-.51-1.32,0-1.83l7.95-7.94c.51-.51,1.32-.51,1.83,0s.51,1.32,0,1.83l-7.95,7.94c-.25.25-.58.38-.91.38Z"/>
  <path class="st0 vec" d="M47.69,89.54c-.33,0-.66-.13-.91-.38-.51-.51-.51-1.32,0-1.83l7.95-7.94c.51-.51,1.32-.51,1.83,0s.51,1.32,0,1.83l-7.95,7.94c-.25.25-.58.38-.91.38Z"/>
  <path class="st0 vec" d="M30.43,89.54c-.33,0-.66-.13-.91-.38-.51-.51-.51-1.32,0-1.83l7.95-7.94c.51-.51,1.32-.51,1.83,0s.51,1.32,0,1.83l-7.95,7.94c-.25.25-.58.38-.91.38Z"/>

  <path class="st0 vec" d="M78.66,24.57c-3.36,0-6.53.81-9.33,2.25-1.98-9.27-10.21-16.21-20.07-16.21s-17.74,6.66-19.93,15.63c-2.48-1.07-5.22-1.66-8.09-1.66C9.89,24.57.7,33.76.7,45.1s9.19,20.53,20.53,20.53h9.07l5.33-5.33c.73-.73,1.71-1.14,2.74-1.14s2.01.4,2.75,1.14c.73.73,1.14,1.71,1.14,2.74,0,.97-.36,1.87-1,2.58h6.3l5.33-5.33c.73-.73,1.71-1.14,2.74-1.14s2.01.4,2.75,1.14c.73.73,1.14,1.71,1.14,2.74,0,.97-.36,1.87-1,2.58h6.3l5.33-5.33c.73-.73,1.71-1.14,2.74-1.14s2.01.4,2.75,1.14c.73.73,1.14,1.71,1.14,2.74,0,.97-.36,1.87-1,2.58h2.89c11.34,0,20.53-9.19,20.53-20.53s-9.19-20.53-20.53-20.53ZM37.09,50.23c-2.01,0-3.64-1.63-3.64-3.64s1.63-3.64,3.64-3.64,3.64,1.63,3.64,3.64-1.63,3.64-3.64,3.64ZM53.93,50.85h-.76c-.21,0-.4-.11-.5-.3-.6-1.16-1.41-1.86-2.18-1.86s-1.58.7-2.18,1.86c-.1.19-.29.3-.5.3h-.76c-.42,0-.69-.44-.51-.82.89-1.92,2.33-3.17,3.96-3.17s3.06,1.25,3.96,3.17c.18.38-.09.82-.51.82ZM63.88,50.23c-2.01,0-3.64-1.63-3.64-3.64s1.63-3.64,3.64-3.64,3.64,1.63,3.64,3.64-1.63,3.64-3.64,3.64Z"/>
</svg>
