<?xml version="1.0" encoding="UTF-8"?>
<svg id="Layer_1" xmlns="http://www.w3.org/2000/svg" version="1.1" viewBox="0 0 100 100">
  <defs>
    <style>
      .st0 { fill: #e8e3a7; }
      .st1 { fill: #a8cde7; }
      .vec { vector-effect: non-scaling-stroke; }
    </style>
  </defs>

  <rect class="st0 vec" x="63.02" y="15.24" width="3.2" height="14.53" rx="1.6" ry="1.6"/>
  <rect class="st0 vec" x="90.09" y="42.31" width="3.2" height="14.53" rx="1.6" ry="1.6" transform="translate(141.27 -42.11) rotate(90)"/>
  <rect class="st0 vec" x="82.16" y="23.17" width="3.2" height="14.53" rx="1.6" ry="1.6" transform="translate(46.06 -50.32) rotate(45)"/>
  <rect class="st0 vec" x="82.16" y="61.46" width="3.2" height="14.53" rx="1.6" ry="1.6" transform="translate(191.59 58.08) rotate(135)"/>
  <rect class="st0 vec" x="43.88" y="23.17" width="3.2" height="14.53" rx="1.6" ry="1.6" transform="translate(99.16 19.8) rotate(135)"/>

  <path class="st1 vec" d="M57.14,55.3c-2.42,0-4.71.59-6.73,1.62-1.43-6.68-7.36-11.69-14.47-11.69s-12.79,4.8-14.37,11.27c-1.79-.77-3.76-1.2-5.83-1.2-8.17,0-14.8,6.63-14.8,14.8s6.63,14.8,14.8,14.8h41.41c8.17,0,14.8-6.63,14.8-14.8s-6.63-14.8-14.8-14.8Z"/>

  <path class="st0 vec" d="M64.62,33c-8.84,0-16.06,6.92-16.55,15.64,1.54,1.63,2.76,3.56,3.54,5.73.85-.3,1.72-.53,2.61-.68-1.09-.32-1.89-1.31-1.89-2.51,0-1.45,1.17-2.62,2.62-2.62s2.62,1.17,2.62,2.62c0,.99-.55,1.84-1.36,2.29.3-.02.61-.04.91-.04.77,0,1.53.06,2.27.16-.09-.11-.15-.24-.15-.4 0-.34.28-.62.62-.62h9.5c.34,0,.62.28.62.62s-.28.62-.62.62h-8.7c5.5,1.19,9.99,5.11,12,10.26,5.09-2.83,8.53-8.26,8.53-14.49,0-9.16-7.42-16.58-16.58-16.58ZM74.28,53.8c-1.45,0-2.62-1.17-2.62-2.62s1.17-2.62,2.62-2.62 2.62,1.17 2.62,2.62-1.17,2.62-2.62,2.62Z"/>
</svg>
