<?xml version="1.0" encoding="UTF-8"?>
<svg id="Layer_1" xmlns="http://www.w3.org/2000/svg" version="1.1" viewBox="0 0 100 100">
  <defs>
    <style>
      .st0 { fill: #e8e3a7; }
      .vec { vector-effect: non-scaling-stroke; }
    </style>
  </defs>

  <rect class="st0 vec" x="47.65" y=".83" width="4.59" height="20.83" rx="2.3" ry="2.3"/>
  <rect class="st0 vec" x="47.65" y="78.47" width="4.59" height="20.83" rx="2.3" ry="2.3"/>
  <rect class="st0 vec" x="86.47" y="39.65" width="4.59" height="20.83" rx="2.3" ry="2.3" transform="translate(138.84 -38.7) rotate(90)"/>
  <rect class="st0 vec" x="8.83" y="39.65" width="4.59" height="20.83" rx="2.3" ry="2.3" transform="translate(61.19 38.95) rotate(90)"/>

  <rect class="st0 vec" x="75.1" y="12.2" width="4.59" height="20.83" rx="2.3" ry="2.3" transform="translate(38.66 -48.1) rotate(45)"/>
  <rect class="st0 vec" x="20.2" y="67.1" width="4.59" height="20.83" rx="2.3" ry="2.3" transform="translate(61.4 6.8) rotate(45)"/>
  <rect class="st0 vec" x="75.1" y="67.1" width="4.59" height="20.83" rx="2.3" ry="2.3" transform="translate(186.94 77.61) rotate(135)"/>
  <rect class="st0 vec" x="20.2" y="12.2" width="4.59" height="20.83" rx="2.3" ry="2.3" transform="translate(54.39 22.71) rotate(135)"/>

  <path class="st0 vec" d="M49.94,26.3c-13.13,0-23.77,10.64-23.77,23.77s10.64,23.77,23.77,23.77,23.77-10.64,23.77-23.77-10.64-23.77-23.77-23.77ZM36.09,56.13c-2.08,0-3.76-1.68-3.76-3.76s1.68-3.76,3.76-3.76,3.76,1.68,3.76,3.76-1.68,3.76-3.76,3.76ZM54.03,55.29c-.92,1.98-2.41,3.27-4.09,3.27s-3.17-1.29-4.09-3.27c-.18-.39.1-.84.53-.84h.79c.22,0,.42.12.52.31.62,1.2,1.46,1.93,2.26,1.93s1.64-.73,2.26-1.93c.1-.19.3-.31.52-.31h.79c.43,0,.71.45.53.84ZM63.79,56.13c-2.08,0-3.76-1.68-3.76-3.76s1.68-3.76,3.76-3.76,3.76,1.68,3.76,3.76-1.68,3.76-3.76,3.76Z"/>
</svg>
