<?xml version="1.0" encoding="UTF-8"?>
<svg id="Layer_1" xmlns="http://www.w3.org/2000/svg" version="1.1" viewBox="0 0 100 100">
  <!-- Generator: Adobe Illustrator 30.0.0, SVG Export Plug-In . SVG Version: 2.1.1 Build 123)  -->
  <defs>
    <style>
      .st0 {
        fill: #e8e3a7;
      }
    </style>
  </defs>
  <rect class="st0" x="47.65" y=".94" width="4.58" height="20.79" rx="2.29" ry="2.29"/>
  <rect class="st0" x="47.65" y="78.41" width="4.58" height="20.79" rx="2.29" ry="2.29"/>
  <rect class="st0" x="86.39" y="39.68" width="4.58" height="20.79" rx="2.29" ry="2.29" transform="translate(138.75 -38.61) rotate(90)"/>
  <rect class="st0" x="8.92" y="39.68" width="4.58" height="20.79" rx="2.29" ry="2.29" transform="translate(61.28 38.86) rotate(90)"/>
  <rect class="st0" x="75.04" y="12.29" width="4.58" height="20.79" rx="2.29" ry="2.29" transform="translate(38.69 -48.04) rotate(45)"/>
  <rect class="st0" x="20.26" y="67.07" width="4.58" height="20.79" rx="2.29" ry="2.29" transform="translate(61.38 6.74) rotate(45)"/>
  <rect class="st0" x="75.04" y="67.07" width="4.58" height="20.79" rx="2.29" ry="2.29" transform="translate(186.79 77.55) rotate(135)"/>
  <rect class="st0" x="20.26" y="12.29" width="4.58" height="20.79" rx="2.29" ry="2.29" transform="translate(54.54 22.77) rotate(135)"/>
  <rect class="st0" x="62.63" y="3.96" width="4.58" height="20.79" rx="2.29" ry="2.29" transform="translate(10.6 -23.99) rotate(22.75)"/>
  <rect class="st0" x="32.68" y="75.4" width="4.58" height="20.79" rx="2.29" ry="2.29" transform="translate(35.89 -6.85) rotate(22.75)"/>
  <rect class="st0" x="83.37" y="54.65" width="4.58" height="20.79" rx="2.29" ry="2.29" transform="translate(178.77 11.19) rotate(112.75)"/>
  <rect class="st0" x="11.93" y="24.7" width="4.58" height="20.79" rx="2.29" ry="2.29" transform="translate(52.09 35.55) rotate(112.75)"/>
  <rect class="st0" x="83.5" y="25.01" width="4.58" height="20.79" rx="2.29" ry="2.29" transform="translate(86.07 -57.41) rotate(67.75)"/>
  <rect class="st0" x="11.8" y="54.35" width="4.58" height="20.79" rx="2.29" ry="2.29" transform="translate(68.67 27.18) rotate(67.75)"/>
  <rect class="st0" x="62.32" y="75.52" width="4.58" height="20.79" rx="2.29" ry="2.29" transform="translate(156.95 140.97) rotate(157.75)"/>
  <rect class="st0" x="32.98" y="3.83" width="4.58" height="20.79" rx="2.29" ry="2.29" transform="translate(73.31 14.03) rotate(157.75)"/>
  <path class="st0" d="M49.94,26.35c-13.1,0-23.72,10.62-23.72,23.72s10.62,23.72,23.72,23.72,23.72-10.62,23.72-23.72-10.62-23.72-23.72-23.72ZM34.75,56.94c-.22.22-.58.22-.8,0l-1.49-1.49-1.24,1.24c-.37.37-.96.37-1.33,0l-1.22-1.22-1.49,1.49c-.11.11-.25.17-.4.17s-.29-.06-.4-.17c-.22-.22-.22-.58,0-.8l1.62-1.62c.37-.37.96-.37,1.33,0l1.22,1.22,1.24-1.24c.37-.37.96-.37,1.33,0l1.62,1.62c.22.22.22.58,0,.8ZM37.2,52.21h-.4c-.32,0-.59-.2-.7-.49-.26-.72-.95-1.23-1.75-1.23s-1.49.51-1.75,1.23c-.11.3-.39.49-.7.49h-.4c-.51,0-.87-.5-.72-.98.48-1.52,1.9-2.62,3.58-2.62s3.09,1.1,3.58,2.62c.15.49-.21.98-.72.98ZM57.19,52.23c-1.31,2.07-4.06,3.5-7.24,3.5s-5.94-1.43-7.24-3.5c-.31-.5.05-1.15.64-1.15h13.21c.59,0,.95.65.64,1.15ZM63.09,52.21h-.4c-.51,0-.87-.5-.72-.98.48-1.52,1.9-2.62,3.58-2.62s3.09,1.1,3.58,2.62c.15.49-.21.98-.72.98h-.4c-.32,0-.59-.2-.7-.49-.26-.72-.95-1.23-1.75-1.23s-1.49.51-1.75,1.23c-.11.3-.39.49-.7.49ZM72.7,56.94l-1.49-1.49-1.24,1.24c-.37.37-.96.37-1.33,0l-1.22-1.22-1.49,1.49c-.11.11-.25.17-.4.17s-.29-.06-.4-.17c-.22-.22-.22-.58,0-.8l1.62-1.62c.37-.37.96-.37,1.33,0l1.22,1.22,1.24-1.24c.37-.37.96-.37,1.33,0l1.62,1.62c.22.22.22.58,0,.8-.22.22-.58.22-.8,0Z"/>
</svg>